<svg width="400" height="400" viewBox="0 0 400 400" xmlns="http://www.w3.org/2000/svg" role="img">
  <title>Rain market placeholder</title>
  <desc>Stylized cloud with falling rain drops on a navy background.</desc>
  <rect width="400" height="400" fill="#0B2545"/>
  <ellipse cx="200" cy="150" rx="120" ry="55" fill="#B8F2E6"/>
  <ellipse cx="140" cy="135" rx="55" ry="45" fill="#B8F2E6"/>
  <ellipse cx="260" cy="135" rx="60" ry="48" fill="#B8F2E6"/>
  <ellipse cx="200" cy="120" rx="50" ry="40" fill="#B8F2E6"/>
  <path d="M 130 230 L 120 270 L 135 270 Z" fill="#13A89E"/>
  <path d="M 165 240 L 155 285 L 170 285 Z" fill="#13A89E"/>
  <path d="M 200 230 L 190 280 L 205 280 Z" fill="#13A89E"/>
  <path d="M 235 240 L 225 285 L 240 285 Z" fill="#13A89E"/>
  <path d="M 270 230 L 260 270 L 275 270 Z" fill="#13A89E"/>
  <path d="M 145 300 L 138 330 L 150 330 Z" fill="#13A89E"/>
  <path d="M 215 305 L 208 335 L 220 335 Z" fill="#13A89E"/>
  <path d="M 255 300 L 248 330 L 260 330 Z" fill="#13A89E"/>
</svg>
