<svg width="400" height="400" viewBox="0 0 400 400" xmlns="http://www.w3.org/2000/svg" role="img">
  <title>Soccer market placeholder</title>
  <desc>A soccer ball centered on a teal field with goal posts in the background.</desc>
  <rect width="400" height="400" fill="#13A89E"/>
  <rect x="0" y="320" width="400" height="80" fill="#0B8A82"/>
  <rect x="60" y="180" width="8" height="140" fill="#B8F2E6"/>
  <rect x="332" y="180" width="8" height="140" fill="#B8F2E6"/>
  <rect x="60" y="180" width="280" height="8" fill="#B8F2E6"/>
  <circle cx="200" cy="220" r="90" fill="#FFFFFF"/>
  <polygon points="200,165 230,185 220,220 180,220 170,185" fill="#0B2545"/>
  <polygon points="150,200 175,215 165,245 130,235 130,210" fill="#0B2545"/>
  <polygon points="250,200 270,210 270,235 235,245 225,215" fill="#0B2545"/>
  <polygon points="195,260 225,260 235,290 200,305 165,290 175,260" fill="#0B2545" transform="translate(-5,0)"/>
  <circle cx="200" cy="220" r="90" fill="none" stroke="#0B2545" stroke-width="3"/>
</svg>
