<svg width="400" height="400" viewBox="0 0 400 400" xmlns="http://www.w3.org/2000/svg" role="img">
  <title>Hot weather market placeholder</title>
  <desc>A sun with radiating rays on a warm gradient background.</desc>
  <rect width="400" height="400" fill="#EF8354"/>
  <g transform="translate(200,200)">
    <g>
      <rect x="-5" y="-180" width="10" height="40" fill="#0B2545"/>
      <rect x="-5" y="140" width="10" height="40" fill="#0B2545"/>
      <rect x="-180" y="-5" width="40" height="10" fill="#0B2545"/>
      <rect x="140" y="-5" width="40" height="10" fill="#0B2545"/>
      <g transform="rotate(45)">
        <rect x="-5" y="-170" width="10" height="35" fill="#0B2545"/>
        <rect x="-5" y="135" width="10" height="35" fill="#0B2545"/>
        <rect x="-170" y="-5" width="35" height="10" fill="#0B2545"/>
        <rect x="135" y="-5" width="35" height="10" fill="#0B2545"/>
      </g>
      <g transform="rotate(22.5)">
        <rect x="-4" y="-160" width="8" height="25" fill="#0B2545"/>
        <rect x="-4" y="135" width="8" height="25" fill="#0B2545"/>
        <rect x="-160" y="-4" width="25" height="8" fill="#0B2545"/>
        <rect x="135" y="-4" width="25" height="8" fill="#0B2545"/>
      </g>
      <g transform="rotate(67.5)">
        <rect x="-4" y="-160" width="8" height="25" fill="#0B2545"/>
        <rect x="-4" y="135" width="8" height="25" fill="#0B2545"/>
        <rect x="-160" y="-4" width="25" height="8" fill="#0B2545"/>
        <rect x="135" y="-4" width="25" height="8" fill="#0B2545"/>
      </g>
    </g>
    <circle cx="0" cy="0" r="100" fill="#B8F2E6"/>
    <circle cx="0" cy="0" r="80" fill="#13A89E"/>
  </g>
</svg>
